<?xml version="1.0" encoding="UTF-8"?>
<svg width="64px" height="64px" viewBox="0 0 64 64" version="1.1" xmlns="http://www.w3.org/2000/svg" xmlns:xlink="http://www.w3.org/1999/xlink">
    <!-- Generator: Sketch 48.2 (47327) - http://www.bohemiancoding.com/sketch -->
    <title>favicon</title>
    <desc>Created with Sketch.</desc>
    <defs></defs>
    <g id="Page-1" stroke="none" stroke-width="1" fill="none" fill-rule="evenodd">
        <g id="favicon" fill="#FF0000">
            <path d="M56.3582014,53.3553993 C53.9262735,48.0765312 49.8468777,43.3809075 46.171273,38.9545913 C45.1063694,37.6883872 43.7055116,35.8388537 42.1252005,34.0795143 C43.5260583,33.8776188 44.9383923,33.6646721 46.3392501,33.4632865 C47.6728661,33.2613909 47.7850775,31.5465111 47.0566382,30.7174216 C43.0105658,26.0552914 38.7522267,21.6288902 33.9554427,17.7173864 C36.8020429,17.7513049 40.0968088,18.1655521 42.3272661,16.5519176 C43.3581662,16.0364251 43.4588165,14.456114 42.4278314,13.7726443 C37.127031,10.1528053 31.6358113,6.89144784 27.3551149,2.02784705 C27.2537846,1.89327834 27.1197259,1.82654653 27.0075145,1.75913466 C27.8256379,0.694401125 26.5255153,-0.571802949 25.4611218,0.279643846 C19.498784,5.00901595 15.9577481,12.1813671 11.5418029,18.2444401 C10.8583332,19.174605 11.7436985,20.8556513 12.9426607,20.676113 C16.1706948,20.2280324 19.3532492,19.6786213 22.5806882,19.1630438 C21.8633001,20.7768483 21.2470723,22.4245713 20.7989916,23.1413643 C17.9523914,27.837413 14.6909489,32.3310561 11.9905637,37.0940066 C11.3064989,38.2929689 12.4386443,39.87328 13.8055837,39.4585227 C16.0021226,38.8090565 18.1990865,38.2596455 20.3956255,37.7441529 C16.036041,44.1208229 11.2731755,50.2286106 7.22761313,56.8066661 C6.47639155,58.0395468 7.70910221,59.6533513 9.10996001,59.2389341 C16.0693644,57.2105423 23.275634,55.775766 30.5374993,55.1256198 C30.7728883,57.5240542 30.9523416,59.8884853 30.985835,62.3652127 C30.985835,64.3488049 33.6976964,64.5621767 34.3143493,62.8138885 C35.1324727,60.5161893 35.5133965,58.1182648 35.8607419,55.7199153 C35.8942354,55.4058083 35.9614772,55.1031775 36.0288891,54.7896655 C42.2040886,54.5543615 48.4126965,54.8569074 54.5425013,55.854484 C55.9882437,56.0674308 57.0081777,54.7672232 56.3582014,53.3553993" id="Fill-142"></path>
        </g>
    </g>
</svg>